<svg xmlns="http://www.w3.org/2000/svg" viewBox="0 0 66.915 66.915"><path d="M21.761 35.201h28.708a2 2 0 0 0 0-4H21.512l8.045-7.855c.781-.781.781-1.952 0-2.733s-2.048-.734-2.828.047L15.394 32.02c-.375.375-.586.896-.586 1.426s.211 1.045.586 1.42L26.73 46.203c.391.391.902.587 1.414.587s1.024-.194 1.415-.585c.781-.781.781-2.237 0-3.018l-7.798-7.986z"/><path d="M66.915 33.457C66.915 15.009 51.906 0 33.458 0 15.009 0 0 15.009 0 33.457c0 18.449 15.009 33.458 33.458 33.458 18.449 0 33.457-15.009 33.457-33.458zM4 33.457C4 17.215 17.215 4 33.458 4s29.457 13.215 29.457 29.457c0 16.243-13.214 29.458-29.457 29.458S4 49.7 4 33.457z"/></svg>